<mxfile host="app.diagrams.net" agent="Mozilla/5.0 (Windows NT 10.0; Win64; x64; rv:136.0) Gecko/20100101 Firefox/136.0" version="26.1.1">
  <diagram name="Página-1" id="ymQRvEdoMM0CcYWLhSdG">
    <mxGraphModel dx="1434" dy="774" grid="1" gridSize="10" guides="1" tooltips="1" connect="1" arrows="1" fold="1" page="1" pageScale="1" pageWidth="827" pageHeight="1169" math="0" shadow="0">
      <root>
        <mxCell id="0" />
        <mxCell id="1" parent="0" />
        <mxCell id="qcq_NtTniwF-tJxEM014-54" value="" style="edgeStyle=orthogonalEdgeStyle;rounded=0;orthogonalLoop=1;jettySize=auto;html=1;" edge="1" parent="1" source="qcq_NtTniwF-tJxEM014-1" target="qcq_NtTniwF-tJxEM014-12">
          <mxGeometry relative="1" as="geometry" />
        </mxCell>
        <mxCell id="qcq_NtTniwF-tJxEM014-1" value="" style="shape=umlActor;verticalLabelPosition=bottom;verticalAlign=top;html=1;outlineConnect=0;textShadow=0;shadow=0;" vertex="1" parent="1">
          <mxGeometry x="150" y="250" width="30" height="60" as="geometry" />
        </mxCell>
        <mxCell id="qcq_NtTniwF-tJxEM014-56" value="" style="edgeStyle=orthogonalEdgeStyle;rounded=0;orthogonalLoop=1;jettySize=auto;html=1;" edge="1" parent="1" source="qcq_NtTniwF-tJxEM014-2" target="qcq_NtTniwF-tJxEM014-51">
          <mxGeometry relative="1" as="geometry" />
        </mxCell>
        <mxCell id="qcq_NtTniwF-tJxEM014-2" value="" style="shape=umlActor;verticalLabelPosition=bottom;verticalAlign=top;html=1;outlineConnect=0;" vertex="1" parent="1">
          <mxGeometry x="150" y="370" width="30" height="60" as="geometry" />
        </mxCell>
        <mxCell id="qcq_NtTniwF-tJxEM014-71" style="edgeStyle=orthogonalEdgeStyle;rounded=0;orthogonalLoop=1;jettySize=auto;html=1;entryX=1;entryY=0.5;entryDx=0;entryDy=0;" edge="1" parent="1" source="qcq_NtTniwF-tJxEM014-4" target="qcq_NtTniwF-tJxEM014-17">
          <mxGeometry relative="1" as="geometry">
            <Array as="points">
              <mxPoint x="740" y="280" />
              <mxPoint x="740" y="690" />
            </Array>
          </mxGeometry>
        </mxCell>
        <mxCell id="qcq_NtTniwF-tJxEM014-4" value="Login" style="ellipse;whiteSpace=wrap;html=1;" vertex="1" parent="1">
          <mxGeometry x="430" y="240" width="120" height="80" as="geometry" />
        </mxCell>
        <mxCell id="qcq_NtTniwF-tJxEM014-55" value="" style="edgeStyle=orthogonalEdgeStyle;rounded=0;orthogonalLoop=1;jettySize=auto;html=1;" edge="1" parent="1" source="qcq_NtTniwF-tJxEM014-12" target="qcq_NtTniwF-tJxEM014-4">
          <mxGeometry relative="1" as="geometry" />
        </mxCell>
        <mxCell id="qcq_NtTniwF-tJxEM014-12" value="Cadastro" style="ellipse;whiteSpace=wrap;html=1;" vertex="1" parent="1">
          <mxGeometry x="260" y="240" width="120" height="80" as="geometry" />
        </mxCell>
        <mxCell id="qcq_NtTniwF-tJxEM014-17" value="acessar informação" style="ellipse;whiteSpace=wrap;html=1;" vertex="1" parent="1">
          <mxGeometry x="430" y="650" width="120" height="80" as="geometry" />
        </mxCell>
        <mxCell id="qcq_NtTniwF-tJxEM014-68" style="edgeStyle=orthogonalEdgeStyle;rounded=0;orthogonalLoop=1;jettySize=auto;html=1;" edge="1" parent="1" source="qcq_NtTniwF-tJxEM014-18" target="qcq_NtTniwF-tJxEM014-17">
          <mxGeometry relative="1" as="geometry">
            <Array as="points">
              <mxPoint x="340" y="620" />
              <mxPoint x="490" y="620" />
            </Array>
          </mxGeometry>
        </mxCell>
        <mxCell id="qcq_NtTniwF-tJxEM014-18" value="Editar" style="ellipse;whiteSpace=wrap;html=1;" vertex="1" parent="1">
          <mxGeometry x="280" y="510" width="120" height="80" as="geometry" />
        </mxCell>
        <mxCell id="qcq_NtTniwF-tJxEM014-33" value="Administrador" style="text;html=1;align=center;verticalAlign=middle;whiteSpace=wrap;rounded=0;" vertex="1" parent="1">
          <mxGeometry x="90" y="385" width="60" height="30" as="geometry" />
        </mxCell>
        <mxCell id="qcq_NtTniwF-tJxEM014-70" style="edgeStyle=orthogonalEdgeStyle;rounded=0;orthogonalLoop=1;jettySize=auto;html=1;entryX=0.5;entryY=0;entryDx=0;entryDy=0;" edge="1" parent="1" source="qcq_NtTniwF-tJxEM014-36" target="qcq_NtTniwF-tJxEM014-17">
          <mxGeometry relative="1" as="geometry">
            <Array as="points">
              <mxPoint x="640" y="620" />
              <mxPoint x="490" y="620" />
            </Array>
          </mxGeometry>
        </mxCell>
        <mxCell id="qcq_NtTniwF-tJxEM014-36" value="Adicionar" style="ellipse;whiteSpace=wrap;html=1;" vertex="1" parent="1">
          <mxGeometry x="580" y="510" width="120" height="80" as="geometry" />
        </mxCell>
        <mxCell id="qcq_NtTniwF-tJxEM014-69" style="edgeStyle=orthogonalEdgeStyle;rounded=0;orthogonalLoop=1;jettySize=auto;html=1;" edge="1" parent="1" source="qcq_NtTniwF-tJxEM014-37" target="qcq_NtTniwF-tJxEM014-17">
          <mxGeometry relative="1" as="geometry" />
        </mxCell>
        <mxCell id="qcq_NtTniwF-tJxEM014-37" value="Deletar" style="ellipse;whiteSpace=wrap;html=1;" vertex="1" parent="1">
          <mxGeometry x="430" y="510" width="120" height="80" as="geometry" />
        </mxCell>
        <mxCell id="qcq_NtTniwF-tJxEM014-41" value="Visitante" style="text;html=1;align=center;verticalAlign=middle;whiteSpace=wrap;rounded=0;" vertex="1" parent="1">
          <mxGeometry x="90" y="265" width="60" height="30" as="geometry" />
        </mxCell>
        <mxCell id="qcq_NtTniwF-tJxEM014-57" value="" style="edgeStyle=orthogonalEdgeStyle;rounded=0;orthogonalLoop=1;jettySize=auto;html=1;" edge="1" parent="1" source="qcq_NtTniwF-tJxEM014-51" target="qcq_NtTniwF-tJxEM014-52">
          <mxGeometry relative="1" as="geometry" />
        </mxCell>
        <mxCell id="qcq_NtTniwF-tJxEM014-51" value="Cadastro" style="ellipse;whiteSpace=wrap;html=1;" vertex="1" parent="1">
          <mxGeometry x="260" y="360" width="120" height="80" as="geometry" />
        </mxCell>
        <mxCell id="qcq_NtTniwF-tJxEM014-60" style="edgeStyle=orthogonalEdgeStyle;rounded=0;orthogonalLoop=1;jettySize=auto;html=1;" edge="1" parent="1" source="qcq_NtTniwF-tJxEM014-52" target="qcq_NtTniwF-tJxEM014-37">
          <mxGeometry relative="1" as="geometry" />
        </mxCell>
        <mxCell id="qcq_NtTniwF-tJxEM014-61" style="edgeStyle=orthogonalEdgeStyle;rounded=0;orthogonalLoop=1;jettySize=auto;html=1;entryX=0.5;entryY=0;entryDx=0;entryDy=0;" edge="1" parent="1" source="qcq_NtTniwF-tJxEM014-52" target="qcq_NtTniwF-tJxEM014-18">
          <mxGeometry relative="1" as="geometry">
            <Array as="points">
              <mxPoint x="490" y="470" />
              <mxPoint x="340" y="470" />
            </Array>
          </mxGeometry>
        </mxCell>
        <mxCell id="qcq_NtTniwF-tJxEM014-63" style="edgeStyle=orthogonalEdgeStyle;rounded=0;orthogonalLoop=1;jettySize=auto;html=1;" edge="1" parent="1" source="qcq_NtTniwF-tJxEM014-52" target="qcq_NtTniwF-tJxEM014-36">
          <mxGeometry relative="1" as="geometry">
            <Array as="points">
              <mxPoint x="490" y="470" />
              <mxPoint x="640" y="470" />
            </Array>
          </mxGeometry>
        </mxCell>
        <mxCell id="qcq_NtTniwF-tJxEM014-52" value="Login" style="ellipse;whiteSpace=wrap;html=1;" vertex="1" parent="1">
          <mxGeometry x="430" y="360" width="120" height="80" as="geometry" />
        </mxCell>
      </root>
    </mxGraphModel>
  </diagram>
</mxfile>
